<svg xmlns="http://www.w3.org/2000/svg" xmlns:svg="http://www.w3.org/2000/svg" id="svg3335" width="515pt" height="1248" version="1.1" viewBox="0 0 515 936"><metadata id="metadata3645"/><polygon style="fill:#fff;stroke:#fff" id="polygon3340" points="512 -932 512 5 -4 5 -4 5 -4 -932" transform="translate(4,932)"/><g id="node1" class="node" transform="translate(4,932)"><title id="title3343">configure.ac</title><polygon style="fill:#0000f0;stroke:#000;opacity:1;fill-opacity:.08627451" id="polygon3345" points="114.75 -818 209.25 -818 209.25 -854 209.25 -854 114.75 -854"/><text style="font-size:14px;text-anchor:middle;font-family:Liberation Sans" id="text3347" x="162" y="-832.3" font-size="14">configure.ac</text></g><g id="node5" class="node" transform="translate(4,932)"><title id="title3350">aclocal</title><ellipse style="fill:none;stroke:#000" id="ellipse3352" cx="66" cy="-762" d="m 105.4691,-762 c 0,9.94113 -17.670917,18 -39.4691,18 -21.798183,0 -39.469101,-8.05887 -39.469101,-18 0,-9.94113 17.670918,-18 39.469101,-18 21.798183,0 39.4691,8.05887 39.4691,18 z" rx="39.469" ry="18"/><text style="font-size:14px;text-anchor:middle;font-family:Liberation Sans" id="text3354" x="66" y="-758.3" font-size="14">aclocal</text></g><g id="edge3" class="edge" transform="translate(4,932)"><title id="title3357">configure.ac-&gt;aclocal</title><path style="fill:none;stroke:#000;stroke-width:1;stroke-miterlimit:4;stroke-dasharray:12,1;stroke-dashoffset:0" id="path3359" d="m 139.249,-817.937 c -13.626,10.22 -31.049,23.287 -45.4828,34.112"/><polygon style="fill:#000;stroke:#000" id="polygon3361" points="89.664 -780.748 93.664 -783.748 93.664 -783.748 93.664 -783.748 89.664 -780.748 90.964 -787.348 85.664 -777.748 85.664 -777.748 85.664 -777.748 96.364 -780.148"/></g><g id="node6" class="node" transform="translate(4,932)"><title id="title3364">autoconf</title><ellipse style="fill:none;stroke:#000" id="ellipse3366" cx="130" cy="-614" d="m 176.2191,-614 c 0,9.94113 -20.693,18 -46.2191,18 -25.5261,0 -46.219101,-8.05887 -46.219101,-18 0,-9.94113 20.693001,-18 46.219101,-18 25.5261,0 46.2191,8.05887 46.2191,18 z" rx="46.219" ry="18"/><text style="font-size:14px;text-anchor:middle;font-family:Liberation Sans" id="text3368" x="130" y="-610.3" font-size="14">autoconf</text></g><g id="edge4" class="edge" transform="translate(4,932)"><title id="title3371">configure.ac-&gt;autoconf</title><path style="fill:none;stroke:#000;stroke-width:1;stroke-miterlimit:4;stroke-dasharray:12,1;stroke-dashoffset:0" id="path3373" d="m 159.489,-817.737 c -5.538,38.073 -18.837,129.506 -25.518,175.436"/><polygon style="fill:#000;stroke:#000" id="polygon3375" points="133.219 -637.131 133.939 -642.079 133.939 -642.079 133.939 -642.079 133.219 -637.131 129.486 -642.726 132.499 -632.183 132.499 -632.183 132.499 -632.183 138.392 -641.431"/></g><g id="node7" class="node" transform="translate(4,932)"><title id="title3378">autoheader</title><ellipse style="fill:none;stroke:#000" id="ellipse3380" cx="220" cy="-762" d="m 277.2927,-762 c 0,9.94113 -25.65081,18 -57.2927,18 -31.64189,0 -57.2927,-8.05887 -57.2927,-18 0,-9.94113 25.65081,-18 57.2927,-18 31.64189,0 57.2927,8.05887 57.2927,18 z" rx="57.293" ry="18"/><text style="font-size:14px;text-anchor:middle;font-family:Liberation Sans" id="text3382" x="220" y="-758.3" font-size="14">autoheader</text></g><g id="edge5" class="edge" transform="translate(4,932)"><title id="title3385">configure.ac-&gt;autoheader</title><path style="fill:none;stroke:#000;stroke-width:1;stroke-miterlimit:4;stroke-dasharray:12,1;stroke-dashoffset:0" id="path3387" d="m 175.745,-817.937 c 7.223,8.967 16.212,20.125 24.197,30.038"/><polygon style="fill:#000;stroke:#000" id="polygon3389" points="203.217 -783.834 200.08 -787.728 200.08 -787.728 200.08 -787.728 203.217 -783.834 196.576 -784.905 206.353 -779.941 206.353 -779.941 206.353 -779.941 203.585 -790.551"/></g><g id="node8" class="node" transform="translate(4,932)"><title id="title3392">automake</title><ellipse style="fill:none;stroke:#000" id="ellipse3394" cx="309" cy="-614" d="m 359.5427,-614 c 0,9.94113 -22.62874,18 -50.5427,18 -27.91396,0 -50.5427,-8.05887 -50.5427,-18 0,-9.94113 22.62874,-18 50.5427,-18 27.91396,0 50.5427,8.05887 50.5427,18 z" rx="50.543" ry="18"/><text style="font-size:14px;text-anchor:middle;font-family:Liberation Sans" id="text3396" x="309" y="-610.3" font-size="14">automake</text></g><g id="edge6" class="edge" transform="translate(4,932)"><title id="title3399">configure.ac-&gt;automake</title><path style="fill:none;stroke:#000;stroke-width:1;stroke-miterlimit:4;stroke-dasharray:12,1;stroke-dashoffset:0" id="path3401" d="m 209.463,-825.823 c 26.664,7.68 58.18,21.469 76.537,45.823 30.292,40.188 30.031,101.971 26.756,137.428"/><polygon style="fill:#000;stroke:#000" id="polygon3403" points="312.206 -637.438 312.739 -642.41 312.739 -642.41 312.739 -642.41 312.206 -637.438 308.265 -642.889 311.674 -632.467 311.674 -632.467 311.674 -632.467 317.213 -641.93"/></g><g id="node2" class="node" transform="translate(4,932)"><title id="title3406">autoscan</title><ellipse style="fill:none;stroke:#000" id="ellipse3408" cx="162" cy="-910" d="m 210.1437,-910 c 0,9.94113 -21.55467,18 -48.1437,18 -26.58903,0 -48.1437,-8.05887 -48.1437,-18 0,-9.94113 21.55467,-18 48.1437,-18 26.58903,0 48.1437,8.05887 48.1437,18 z" rx="48.144" ry="18"/><text style="font-size:14px;text-anchor:middle;font-family:Liberation Sans" id="text3410" x="162" y="-906.3" font-size="14">autoscan</text></g><g id="edge1" class="edge" transform="translate(4,932)"><title id="title3413">autoscan-&gt;configure.ac</title><path style="fill:none;stroke:#000;stroke-width:2" id="path3415" d="m 162,-891.937 c 0,6.716 0,14.661 0,22.392"/><polygon style="fill:#000;stroke:#000" id="polygon3417" points="156.75 -869.441 167.25 -869.441 167.25 -869.441 162 -854.441"/></g><g id="node3" class="node" transform="translate(4,932)"><title id="title3420">Makefile.am</title><polygon style="fill:#0000f0;stroke:#000;fill-opacity:.08627451" id="polygon3422" points="333 -670 425 -670 425 -706 425 -706 333 -706"/><text style="font-size:14px;text-anchor:middle;font-family:Liberation Sans" id="text3424" x="379" y="-684.3" font-size="14">Makefile.am</text></g><g id="edge10" class="edge" transform="translate(4,932)"><title id="title3427">Makefile.am-&gt;automake</title><path style="fill:none;stroke:#000;stroke-width:1;stroke-miterlimit:4;stroke-dasharray:12,1;stroke-dashoffset:0" id="path3429" d="m 362.411,-669.937 c -9.021,9.279 -20.323,20.903 -30.204,31.067"/><polygon style="fill:#000;stroke:#000" id="polygon3431" points="328.474 -635.03 331.959 -638.615 331.959 -638.615 331.959 -638.615 328.474 -635.03 328.732 -641.752 324.988 -631.445 324.988 -631.445 324.988 -631.445 335.185 -635.478"/></g><g id="node9" class="node" transform="translate(4,932)"><title id="title3434">aclocal.m4</title><polygon style="fill:#0000f0;stroke:#000;fill-opacity:.08627451" id="polygon3436" points="21.75 -670 106.25 -670 106.25 -706 106.25 -706 21.75 -706"/><text style="font-size:14px;text-anchor:middle;font-family:Liberation Sans" id="text3438" x="64" y="-684.3" font-size="14">aclocal.m4</text></g><g id="edge7" class="edge" transform="translate(4,932)"><title id="title3441">aclocal-&gt;aclocal.m4</title><path style="fill:none;stroke:#000;stroke-width:2" id="path3443" d="m 65.526,-743.937 c -0.1865,6.716 -0.4072,14.661 -0.622,22.392"/><polygon style="fill:#000;stroke:#000" id="polygon3445" points="59.653 -721.581 70.149 -721.289 70.149 -721.289 64.484 -706.441"/></g><g id="node12" class="node" transform="translate(4,932)"><title id="title3448">configure</title><ellipse style="fill:#0000f0;stroke:#000;fill-opacity:.08627451" id="ellipse3450" cx="130" cy="-486" d="m 202,-486 c 0,39.7645 -32.2355,72 -72,72 -39.764502,0 -72,-32.2355 -72,-72 0,-39.7645 32.235498,-72 72,-72 39.7645,0 72,32.2355 72,72 z" rx="72" ry="72"/><polyline style="fill:none;stroke:#000" id="polyline3452" points="177.621 -540 82.379 -540"/><polyline style="fill:none;stroke:#000" id="polyline3454" points="177.621 -432 82.379 -432"/><text style="font-size:14px;text-anchor:middle;font-family:Liberation Sans" id="text3456" x="130" y="-482.3" font-size="14">configure</text></g><g id="edge13" class="edge" transform="translate(4,932)"><title id="title3459">autoconf-&gt;configure</title><path style="fill:none;stroke:#000;stroke-width:2" id="path3461" d="m 130,-595.744 c 0,6.397 0,14.16 0,22.563"/><polygon style="fill:#000;stroke:#000" id="polygon3463" points="124.75 -573.051 135.25 -573.051 135.25 -573.051 130 -558.051"/></g><g id="node10" class="node" transform="translate(7.9661017,932)"><title id="title3466">config.h.in</title><polygon style="fill:#0000f0;stroke:#000;fill-opacity:.08627451" id="polygon3468" points="260.25 -670 260.25 -706 260.25 -706 179.75 -706 179.75 -670"/><text style="font-size:14px;text-anchor:middle;font-family:Liberation Sans" id="text3470" x="220" y="-684.3" font-size="14">config.h.in</text></g><g id="edge8" class="edge" transform="translate(4,932)"><title id="title3473">autoheader-&gt;config.h.in</title><path style="fill:none;stroke:#000;stroke-width:2" id="path3475" d="m 220,-743.937 c 0,6.716 0,14.661 0,22.392"/><polygon style="fill:#000;stroke:#000" id="polygon3477" points="214.75 -721.441 225.25 -721.441 225.25 -721.441 220 -706.441"/></g><g id="node11" class="node" transform="translate(4,932)"><title id="title3480">Makefile.in</title><polygon style="fill:#0000f0;stroke:#000;fill-opacity:.08627451" id="polygon3482" points="260.75 -468 343.25 -468 343.25 -504 343.25 -504 260.75 -504"/><text style="font-size:14px;text-anchor:middle;font-family:Liberation Sans" id="text3484" x="302" y="-482.3" font-size="14">Makefile.in</text></g><g id="edge11" class="edge" transform="translate(4,932)"><title id="title3487">automake-&gt;Makefile.in</title><path style="fill:none;stroke:#000;stroke-width:2" id="path3489" d="m 308.041,-595.744 c -1.089,19.604 -2.89,52.031 -4.243,76.384"/><polygon style="fill:#000;stroke:#000" id="polygon3491" points="298.537 -519.315 309.021 -518.733 309.021 -518.733 302.947 -504.047"/></g><g id="edge12" class="edge" transform="translate(4,932)"><title id="title3494">aclocal.m4-&gt;autoconf</title><path style="fill:none;stroke:#000;stroke-width:1;stroke-miterlimit:4;stroke-dasharray:12,1;stroke-dashoffset:0" id="path3496" d="m 79.6411,-669.937 c 8.5054,9.279 19.1615,20.903 28.4789,31.067"/><polygon style="fill:#000;stroke:#000" id="polygon3498" points="111.547 -635.131 108.168 -638.816 108.168 -638.816 108.168 -638.816 111.547 -635.131 104.851 -635.776 114.925 -631.445 114.925 -631.445 114.925 -631.445 111.485 -641.857"/></g><g id="edge9" class="edge" transform="translate(4,932)"><title id="title3501">config.h.in-&gt;automake</title><path style="fill:none;stroke:#000;stroke-width:1;stroke-miterlimit:4;stroke-dasharray:12,1;stroke-dashoffset:0" id="path3503" d="m 241.092,-669.937 c 12.174,9.849 27.617,22.342 40.698,32.925"/><polygon style="fill:#000;stroke:#000" id="polygon3505" points="285.693 -633.855 281.806 -637 281.806 -637 281.806 -637 285.693 -633.855 278.975 -633.501 289.58 -630.71 289.58 -630.71 289.58 -630.71 284.636 -640.498"/></g><g id="node15" class="node" transform="translate(4,932)"><title id="title3508">config.status</title><ellipse style="fill:#0000f0;stroke:#000;fill-opacity:.08627451" id="ellipse3510" cx="230" cy="-313" d="m 293.0666,-313 c 0,34.84298 -28.23588,63.0888 -63.0666,63.0888 -34.83072,0 -63.0666,-28.24582 -63.0666,-63.0888 0,-34.84298 28.23588,-63.0888 63.0666,-63.0888 34.83072,0 63.0666,28.24582 63.0666,63.0888 z" rx="63.067" ry="63.089"/><polyline style="fill:none;stroke:#000" id="polyline3512" points="271.668 -360.283 188.332 -360.283"/><polyline style="fill:none;stroke:#000" id="polyline3514" points="271.668 -265.717 188.332 -265.717"/><text style="font-size:14px;text-anchor:middle;font-family:Liberation Sans" id="text3516" x="230" y="-309.3" font-size="14">config.status</text></g><g id="edge14" class="edge" transform="translate(4,932)"><title id="title3519">config.h.in-&gt;config.status</title><path style="fill:none;stroke:#000;stroke-width:1;stroke-miterlimit:4;stroke-dasharray:12,1;stroke-dashoffset:0" id="path3521" d="m 227.40968,-670.00576 c 1.335,49.807 -1.72568,195.00376 0.65132,283.69476"/><polygon style="fill:#000;stroke:#000" id="polygon3523" points="228.202 -381.047 228.068 -386.045 228.068 -386.045 228.068 -386.045 228.202 -381.047 223.57 -385.925 228.336 -376.049 228.336 -376.049 228.336 -376.049 232.567 -386.166"/></g><g id="edge15" class="edge" transform="translate(4,932)"><title id="title3526">Makefile.in-&gt;config.status</title><path style="fill:none;stroke:#000;stroke-width:1;stroke-miterlimit:4;stroke-dasharray:12,1;stroke-dashoffset:0" id="path3528" d="m 294.833,-467.979 c -8.579,20.376 -23.463,55.724 -36.807,87.417"/><polygon style="fill:#000;stroke:#000" id="polygon3530" points="256.067 -375.909 258.007 -380.517 258.007 -380.517 258.007 -380.517 256.067 -375.909 253.86 -382.264 254.127 -371.301 254.127 -371.301 254.127 -371.301 262.155 -378.771"/></g><g id="edge16" class="edge" transform="translate(4,932)"><title id="title3533">configure-&gt;config.status</title><path style="fill:none;stroke:#000;stroke-width:2" id="path3535" d="m 166.102,-423.265 c 8.055,13.774 16.633,28.443 24.803,42.413"/><polygon style="fill:#000;stroke:#000" id="polygon3537" points="186.478 -378.022 195.542 -383.323 195.542 -383.323 198.582 -367.724"/></g><g id="node13" class="node" transform="translate(4,932)"><title id="title3540">config.h</title><polygon style="fill:#0000f0;stroke:#000;fill-opacity:.08627451" id="polygon3542" points="110.75 -176 177.25 -176 177.25 -212 177.25 -212 110.75 -212"/><text style="font-size:14px;text-anchor:middle;font-family:Liberation Sans" id="text3544" x="144" y="-190.3" font-size="14">config.h</text></g><g id="node18" class="node" transform="translate(4,932)"><title id="title3547">make</title><ellipse style="fill:none;stroke:#000" id="ellipse3549" cx="230" cy="-106" d="m 263.2209,-106 c 0,9.941125 -14.8735,18 -33.2209,18 -18.3474,0 -33.2209,-8.058875 -33.2209,-18 0,-9.94113 14.8735,-18 33.2209,-18 18.3474,0 33.2209,8.05887 33.2209,18 z" rx="33.221" ry="18"/><text style="font-size:14px;text-anchor:middle;font-family:Liberation Sans" id="text3551" x="230" y="-102.3" font-size="14">make</text></g><g id="edge21" class="edge" transform="translate(4,932)"><title id="title3554">config.h-&gt;make</title><path style="fill:none;stroke:#000;stroke-width:1;stroke-miterlimit:4;stroke-dasharray:12,1;stroke-dashoffset:0" id="path3556" d="m 161.403,-175.597 c 13.375,13.375 31.944,31.944 46.39,46.39"/><polygon style="fill:#000;stroke:#000" id="polygon3558" points="211.386 -125.614 207.85 -129.15 207.85 -129.15 207.85 -129.15 211.386 -125.614 204.668 -125.968 214.922 -122.078 214.922 -122.078 214.922 -122.078 211.032 -132.332"/></g><g id="node14" class="node" transform="translate(4,932)"><title id="title3561">Makefile</title><polygon style="fill:#0000f0;stroke:#000;fill-opacity:.08627451" id="polygon3563" points="195.75 -176 264.25 -176 264.25 -212 264.25 -212 195.75 -212"/><text style="font-size:14px;text-anchor:middle;font-family:Liberation Sans" id="text3565" x="230" y="-190.3" font-size="14">Makefile</text></g><g id="edge22" class="edge" transform="translate(4,932)"><title id="title3568">Makefile-&gt;make</title><path style="fill:none;stroke:#000;stroke-width:1;stroke-miterlimit:4;stroke-dasharray:12,1;stroke-dashoffset:0" id="path3570" d="m 230,-175.597 c 0,11.851 0,27.78 0,41.305"/><polygon style="fill:#000;stroke:#000" id="polygon3572" points="230 -129.084 230 -134.084 230 -134.084 230 -134.084 230 -129.084 225.5 -134.084 230 -124.084 230 -124.084 230 -124.084 234.5 -134.084"/></g><g id="edge18" class="edge" transform="translate(4,932)"><title id="title3575">config.status-&gt;config.h</title><path style="fill:none;stroke:#000;stroke-width:2" id="path3577" d="m 193.029,-261.702 c -9.358,12.731 -19.105,25.992 -27.42,37.304"/><polygon style="fill:#000;stroke:#000" id="polygon3579" points="161.268 -227.357 169.729 -221.138 169.729 -221.138 156.615 -212.162"/></g><g id="edge19" class="edge" transform="translate(4,932)"><title id="title3582">config.status-&gt;Makefile</title><path style="fill:none;stroke:#000;stroke-width:2" id="path3584" d="m 230,-249.732 c 0,7.628 0,15.171 0,22.106"/><polygon style="fill:#000;stroke:#000" id="polygon3586" points="224.75 -227.368 235.25 -227.368 235.25 -227.368 230 -212.368"/></g><g id="node20" class="node" transform="translate(4,932)"><title id="title3589">input file</title><polygon style="fill:#0000f0;stroke:#000;fill-opacity:.08627451" id="polygon3591" points="393 -176 461 -176 461 -212 461 -212 393 -212"/><text style="font-size:14px;font-style:italic;text-anchor:start;font-family:URW Palladio L" id="text3593" x="401.5" y="-191.3" font-size="14" font-style="italic">input file</text></g><g id="node19" class="node" transform="translate(4,932)"><title id="title3596">executable</title><polygon style="fill:#00c800;stroke:#000;fill-opacity:.19607843" id="polygon3598" points="192.75 0 267.25 0 267.25 -36 267.25 -36 192.75 -36"/><text style="font-size:14px;font-style:italic;text-anchor:start;font-family:URW Palladio L" id="text3600" x="201" y="-15.3" font-size="14" font-style="italic">executable</text></g><g id="edge24" class="edge" transform="translate(4,932)"><title id="title3603">make-&gt;executable</title><path style="fill:none;stroke:#000;stroke-width:2" id="path3605" d="m 230,-87.5966 c 0,10.4427 0,24.0522 0,36.3931"/><polygon style="fill:#000;stroke:#000" id="polygon3607" points="224.75 -51.084 235.25 -51.084 235.25 -51.084 230 -36.084"/></g><g id="node21" class="node" transform="translate(4,932)"><title id="title3610">process</title><ellipse style="fill:none;stroke:#000" id="ellipse3612" cx="427" cy="-106" d="m 464.0701,-106 c 0,9.941125 -16.59685,18 -37.0701,18 -20.47325,0 -37.0701,-8.058875 -37.0701,-18 0,-9.94113 16.59685,-18 37.0701,-18 20.47325,0 37.0701,8.05887 37.0701,18 z" rx="37.07" ry="18"/><text style="font-size:14px;font-style:italic;text-anchor:start;font-family:URW Palladio L" id="text3614" x="407" y="-103.3" font-size="14" font-style="italic">process</text></g><g id="edge26" class="edge" transform="translate(4,932)"><title id="title3617">input file-&gt;process</title><path style="fill:none;stroke:#000;stroke-width:1;stroke-miterlimit:4;stroke-dasharray:12,1;stroke-dashoffset:0" id="path3619" d="m 427,-175.597 c 0,11.851 0,27.78 0,41.305"/><polygon style="fill:#000;stroke:#000" id="polygon3621" points="427 -129.084 427 -134.084 427 -134.084 427 -134.084 427 -129.084 422.5 -134.084 427 -124.084 427 -124.084 427 -124.084 431.5 -134.084"/><text style="font-size:14px;text-anchor:middle;font-family:Liberation Sans" id="text3623" x="467" y="-146.3" font-size="14">influences</text></g><g id="node22" class="node" transform="translate(4,932)"><title id="title3626">output file</title><polygon style="fill:#00c800;stroke:#000;fill-opacity:.19607843" id="polygon3628" points="389.75 0 464.25 0 464.25 -36 464.25 -36 389.75 -36"/><text style="font-size:14px;font-style:italic;text-anchor:start;font-family:URW Palladio L" id="text3630" x="398" y="-15.3" font-size="14" font-style="italic">output file</text></g><g id="edge27" class="edge" transform="translate(4,932)"><title id="title3633">process-&gt;output file</title><path style="fill:none;stroke:#000;stroke-width:2" id="path3635" d="m 427,-87.5966 c 0,10.4427 0,24.0522 0,36.3931"/><polygon style="fill:#000;stroke:#000" id="polygon3637" points="421.75 -51.084 432.25 -51.084 432.25 -51.084 427 -36.084"/><text style="font-size:14px;text-anchor:middle;font-family:Liberation Sans" id="text3639" x="458.5" y="-58.3" font-size="14">creates</text></g></svg>